<svg width="24" height="24" viewBox="0 0 24 24" fill="none" xmlns="http://www.w3.org/2000/svg">
<mask id="mask0_15_84" style="mask-type:alpha" maskUnits="userSpaceOnUse" x="0" y="0" width="24" height="24">
<rect width="24" height="24" fill="#D9D9D9"/>
</mask>
<g mask="url(#mask0_15_84)">
<path d="M6.5 15.6923V8.30775C6.5 7.80908 6.67658 7.38308 7.02975 7.02975C7.38308 6.67658 7.80908 6.5 8.30775 6.5H15.6923C16.1909 6.5 16.6169 6.67658 16.9703 7.02975C17.3234 7.38308 17.5 7.80908 17.5 8.30775V15.6923C17.5 16.1909 17.3234 16.6169 16.9703 16.9703C16.6169 17.3234 16.1909 17.5 15.6923 17.5H8.30775C7.80908 17.5 7.38308 17.3234 7.02975 16.9703C6.67658 16.6169 6.5 16.1909 6.5 15.6923ZM8.30775 16H15.6923C15.7821 16 15.8558 15.9712 15.9135 15.9135C15.9712 15.8558 16 15.7821 16 15.6923V8.30775C16 8.21792 15.9712 8.14417 15.9135 8.0865C15.8558 8.02883 15.7821 8 15.6923 8H8.30775C8.21792 8 8.14417 8.02883 8.0865 8.0865C8.02883 8.14417 8 8.21792 8 8.30775V15.6923C8 15.7821 8.02883 15.8558 8.0865 15.9135C8.14417 15.9712 8.21792 16 8.30775 16Z" fill="white"/>
</g>
</svg>
