<svg width="24" height="24" viewBox="0 0 24 24" fill="none" xmlns="http://www.w3.org/2000/svg">
<mask id="mask0_15_194" style="mask-type:alpha" maskUnits="userSpaceOnUse" x="0" y="0" width="24" height="24">
<rect width="24" height="24" fill="#D9D9D9"/>
</mask>
<g mask="url(#mask0_15_194)">
<path d="M18.6922 12.75H16.577C16.3645 12.75 16.1863 12.6781 16.0425 12.5343C15.8988 12.3904 15.827 12.2123 15.827 11.9998C15.827 11.7871 15.8988 11.609 16.0425 11.4655C16.1863 11.3218 16.3645 11.25 16.577 11.25H18.6922C18.9047 11.25 19.0829 11.3219 19.2267 11.4658C19.3704 11.6096 19.4422 11.7878 19.4422 12.0003C19.4422 12.2129 19.3704 12.391 19.2267 12.5345C19.0829 12.6782 18.9047 12.75 18.6922 12.75ZM14.5327 16.7135C14.6609 16.5378 14.8247 16.4365 15.024 16.4095C15.2233 16.3827 15.4108 16.4333 15.5865 16.5615L17.273 17.8288C17.4487 17.9571 17.55 18.1209 17.577 18.3203C17.6038 18.5196 17.5532 18.7071 17.425 18.8828C17.2968 19.0583 17.1331 19.1595 16.9337 19.1865C16.7342 19.2135 16.5467 19.1628 16.3712 19.0345L14.6845 17.7673C14.509 17.6391 14.4077 17.4753 14.3807 17.276C14.3539 17.0767 14.4046 16.8892 14.5327 16.7135ZM17.2345 6.13275L15.548 7.4C15.3723 7.52817 15.1848 7.57884 14.9855 7.552C14.7862 7.525 14.6224 7.42367 14.4942 7.248C14.3661 7.0725 14.3154 6.885 14.3422 6.6855C14.3692 6.48617 14.4706 6.32242 14.6462 6.19425L16.3327 4.927C16.5084 4.79884 16.6959 4.74817 16.8952 4.775C17.0946 4.802 17.2583 4.90325 17.3865 5.07875C17.5147 5.25442 17.5653 5.44192 17.5385 5.64125C17.5115 5.84075 17.4102 6.00459 17.2345 6.13275ZM7.26924 14.5H4.46149C4.20549 14.5 3.99082 14.4133 3.81749 14.24C3.64432 14.0668 3.55774 13.8522 3.55774 13.596V10.404C3.55774 10.1478 3.64432 9.93317 3.81749 9.76C3.99082 9.58667 4.20549 9.5 4.46149 9.5H7.26924L10.2615 6.50775C10.5013 6.26809 10.7773 6.214 11.0895 6.3455C11.4017 6.477 11.5577 6.71184 11.5577 7.05V16.95C11.5577 17.2882 11.4017 17.523 11.0895 17.6545C10.7773 17.786 10.5013 17.7319 10.2615 17.4923L7.26924 14.5ZM10.0577 8.85L7.90774 11H5.05774V13H7.90774L10.0577 15.15V8.85Z" fill="#736A91"/>
</g>
</svg>
