<svg width="24" height="24" viewBox="0 0 24 24" fill="none" xmlns="http://www.w3.org/2000/svg">
<mask id="mask0_25_31" style="mask-type:alpha" maskUnits="userSpaceOnUse" x="0" y="0" width="24" height="24">
<rect width="24" height="24" fill="#D9D9D9"/>
</mask>
<g mask="url(#mask0_25_31)">
<path d="M13.827 13.0538L15.9 15.127C16.0385 15.2653 16.2125 15.3362 16.422 15.3395C16.6317 15.3427 16.8089 15.2718 16.9538 15.127C17.0986 14.982 17.171 14.8063 17.171 14.6C17.171 14.3937 17.0986 14.218 16.9538 14.073L14.8808 12L16.9538 9.927C17.0923 9.7885 17.1631 9.61442 17.1663 9.40475C17.1694 9.19525 17.0986 9.018 16.9538 8.873C16.8089 8.72817 16.6334 8.65575 16.427 8.65575C16.2205 8.65575 16.0449 8.72817 15.9 8.873L13.827 10.9462L11.7538 8.873C11.6154 8.73467 11.4414 8.66383 11.2318 8.6605C11.0221 8.65733 10.8449 8.72817 10.7 8.873C10.5552 9.018 10.4828 9.19367 10.4828 9.4C10.4828 9.60633 10.5552 9.782 10.7 9.927L12.773 12L10.7 14.073C10.5615 14.2115 10.4907 14.3856 10.4875 14.5953C10.4844 14.8048 10.5552 14.982 10.7 15.127C10.8449 15.2718 11.0205 15.3442 11.227 15.3442C11.4334 15.3442 11.6089 15.2718 11.7538 15.127L13.827 13.0538ZM9.08653 19.5C8.80203 19.5 8.53086 19.4372 8.27303 19.3115C8.01536 19.1858 7.80453 19.0108 7.64053 18.7865L3.32303 13.0942C3.07569 12.7699 2.95203 12.4052 2.95203 12C2.95203 11.5948 3.07569 11.2301 3.32303 10.9057L7.64053 5.2135C7.80453 4.98917 8.01536 4.81417 8.27303 4.6885C8.53086 4.56283 8.80203 4.5 9.08653 4.5H19.6923C20.1909 4.5 20.6169 4.67658 20.9703 5.02975C21.3234 5.38308 21.5 5.80908 21.5 6.30775V17.6923C21.5 18.1909 21.3234 18.6169 20.9703 18.9703C20.6169 19.3234 20.1909 19.5 19.6923 19.5H9.08653ZM9.08653 18H19.6923C19.7821 18 19.8559 17.9712 19.9135 17.9135C19.9712 17.8558 20 17.7821 20 17.6923V6.30775C20 6.21792 19.9712 6.14417 19.9135 6.0865C19.8559 6.02883 19.7821 6 19.6923 6H9.08653C9.03519 6 8.98869 6.00958 8.94703 6.02875C8.90536 6.04808 8.86853 6.077 8.83653 6.1155L4.51928 11.8078C4.47444 11.8654 4.45203 11.9295 4.45203 12C4.45203 12.0705 4.47444 12.1346 4.51928 12.1923L8.83653 17.8845C8.86853 17.923 8.90536 17.9519 8.94703 17.9712C8.98869 17.9904 9.03519 18 9.08653 18Z" fill="#736A91"/>
</g>
</svg>
