<svg width="24" height="24" viewBox="0 0 24 24" fill="none" xmlns="http://www.w3.org/2000/svg">
<mask id="mask0_38_7" style="mask-type:alpha" maskUnits="userSpaceOnUse" x="0" y="0" width="24" height="24">
<rect width="24" height="24" fill="#D9D9D9"/>
</mask>
<g mask="url(#mask0_38_7)">
<path d="M7.26924 14.5H4.46149C4.20549 14.5 3.99082 14.4133 3.81749 14.24C3.64432 14.0668 3.55774 13.8522 3.55774 13.596V10.404C3.55774 10.1478 3.64432 9.93315 3.81749 9.75999C3.99082 9.58665 4.20549 9.49999 4.46149 9.49999H7.26924L10.2615 6.50774C10.5013 6.26807 10.7773 6.21399 11.0895 6.34549C11.4017 6.47699 11.5577 6.71182 11.5577 7.04999V16.95C11.5577 17.2882 11.4017 17.523 11.0895 17.6545C10.7773 17.786 10.5013 17.7319 10.2615 17.4922L7.26924 14.5ZM10.0577 8.84999L7.90774 11H5.05774V13H7.90774L10.0577 15.15V8.84999Z" fill="#736A91"/>
</g>
</svg>
