<svg width="29" height="86" viewBox="0 0 29 86" fill="none" xmlns="http://www.w3.org/2000/svg">
<path fill-rule="evenodd" clip-rule="evenodd" d="M15.3771 44.846C15.3531 44.5197 15.3328 44.3055 15.3171 44.2306C15.1542 43.4555 14.9777 42.5738 14.7877 41.5857C14.5976 40.5976 14.3986 39.5151 14.1909 38.3382C13.983 37.1614 13.7609 35.9481 13.5246 34.6985C14.0802 33.615 14.5377 32.388 14.8972 31.0176C15.2663 29.6714 15.5705 28.2667 15.81 26.8034C16.0589 25.3643 16.233 23.9125 16.3321 22.4481C16.4313 20.9836 16.4741 10.625 16.4603 9.37239C16.4613 8.08603 16.4127 6.95883 16.3143 5.99083C16.2065 4.99855 16.07 4.25509 15.9049 3.76045L15.848 3.6149C15.6396 3.0812 15.2836 2.56323 14.7801 2.06094C14.3007 1.54918 13.7554 1.11908 13.1441 0.770642C12.5328 0.422223 11.8988 0.194501 11.242 0.0874911C10.5999 -0.053256 10.0242 -0.024188 9.51484 0.174695C9.10237 0.335691 8.76167 0.608518 8.49251 0.993161C8.21382 1.35354 8.03792 1.86953 7.96455 2.54113C7.86702 3.2222 7.89143 4.35885 8.03779 5.95111C8.17476 7.5191 8.37727 18.327 8.64558 20.3749C8.88972 22.4322 9.19063 24.6351 9.54829 26.9835C9.88167 29.3414 10.2279 31.6244 10.5867 33.8326C10.3753 34.2882 10.1263 34.7679 9.83955 35.2718C9.49177 35.7746 9.08455 36.3916 8.68147 37.0025L8.67415 37.0134L8.66279 37.0307L8.64888 37.0518C8.2436 37.6655 7.8448 38.2697 7.51631 38.7421C7.43269 38.8527 7.34871 38.9624 7.26448 39.0714C7.13838 39.2416 7.0124 39.4079 6.88667 39.5705C6.84382 39.6147 6.80879 39.644 6.78279 39.6565C6.31416 39.8578 4.68757 41.2603 4.17817 41.712C3.66865 42.1638 3.14473 42.7787 2.6064 43.5567C1.95589 44.577 1.43782 45.6763 1.05208 46.8545C0.666334 48.0328 0.389357 49.1385 0.2209 50.1716C0.13423 50.7039 0.0746595 51.2179 0.0421888 51.7139C-0.00712756 52.1653 -0.0132311 52.5739 0.0240004 52.9397C0.040724 53.8771 0.298536 54.821 0.797316 55.7713C1.31819 56.7348 1.96736 59.6545 2.74458 60.5305C3.5218 61.4065 4.37214 62.2058 5.29548 62.9284C6.2408 63.6643 7.14375 64.2889 8.00435 64.8024C8.68843 65.2105 9.60078 65.4801 10.7415 65.6111C11.3951 65.668 11.9324 65.6041 12.6335 65.6111C12.5 66 12.5228 66.22 12.5 66.5C12.3956 67.7821 12.2539 74.486 12.0747 75.5187C11.8954 76.5515 11.8122 77.0142 11.5579 77.5256C11.0668 78.516 10.4959 79.2857 9.84517 79.8347C9.16939 80.3912 8.53218 80.7593 7.93367 80.9391C7.2353 81.1489 6.6678 81.1154 6.23115 80.8387C6.01411 80.6592 5.81453 80.4472 5.63228 80.2029C5.45759 79.9834 5.2729 79.6854 5.07832 79.3088C4.86616 78.9647 4.68135 78.5307 4.52412 78.007L0.782789 78.7229C0.962599 79.3215 1.30464 80.0073 1.80867 80.7804C2.29536 81.5859 2.84187 82.319 3.44819 82.9798C4.06209 83.6655 4.67964 84.2278 5.30086 84.6666C5.92207 85.1054 6.44356 85.3022 6.86506 85.2572L7.16438 85.1673C7.63826 85.025 8.27046 84.6855 9.06087 84.149C9.82649 83.6199 10.6082 82.9636 11.4062 82.1801C12.1866 81.429 12.8959 80.577 13.5341 79.6239C14.155 78.7033 14.5412 77.7715 14.6931 76.8286C14.8549 75.8283 15.0727 74.6072 15.3466 73.1654C15.5551 72.0194 15.743 66.8345 15.9102 65.6109C16.6872 65.5632 17.4447 65.4973 18.1824 65.4133C19.4184 65.2576 20.4659 65.1441 21.3249 65.0726C22.1347 65.0062 22.9217 64.6342 23.6859 63.9565C24.4771 63.2607 25.1768 62.4587 25.7849 61.5505C26.42 60.6241 26.9458 57.7011 27.3619 56.7815C27.7833 55.8306 28.0423 55.0577 28.1392 54.4629L28.2005 54.0872C28.2159 53.5468 28.0158 52.8434 27.6002 51.9771C27.1845 51.1107 26.6619 50.2321 26.0323 49.3412C25.4248 48.4635 24.7579 47.6533 24.0314 46.9107C23.7504 46.605 23.3369 46.3934 22.9083 46.2292C21.2037 44.6965 17.7241 44.6776 17.2119 44.6999C16.5408 44.7379 15.9293 44.7866 15.3771 44.846ZM11.692 7.04052C11.7309 5.85121 11.8388 4.80269 12.0156 3.89499L12.2287 4.44081C13.1473 6.7939 13.5861 18.2784 13.545 20.8943C13.5282 23.5008 13.2025 26.0321 12.5679 28.4884C12.3773 26.9973 12.2081 25.5258 12.0605 24.0737C11.9035 22.5975 11.7871 12.1892 11.7111 10.849C11.6595 9.49936 11.6532 8.22986 11.692 7.04052ZM9.81257 41.4193L9.80891 41.4248C8.95759 42.7148 8.09505 44.0217 7.79085 44.2798C7.1999 44.786 6.59871 45.3548 5.98738 45.9862C5.38118 46.5864 4.81062 47.1906 4.27559 47.7989C3.76277 48.4204 3.38057 48.9824 3.12923 49.4851C3.02217 49.6961 2.94575 49.9424 2.89985 50.2242C2.80794 50.7877 2.8188 51.464 2.93233 52.2532C3.07295 53.0241 3.274 53.7967 3.53511 54.5709C3.82356 55.3269 4.14668 56.0178 4.50471 56.6437C4.86787 57.2382 5.23701 59.6474 5.61213 59.8712C5.899 60.0423 6.43794 60.2265 7.22896 60.4237C8.01997 60.6208 8.93416 60.8056 9.97139 60.9779C10.8339 61.1289 11.7399 61.2602 12.6893 61.3719C12.653 60.6623 12.6134 57.8443 12.5719 56.963C12.4444 56.9696 12.3139 56.9687 12.1805 56.9604C12.0417 56.9418 11.9205 56.9147 11.817 56.8792C11.7041 56.8694 11.5828 56.8424 11.4534 56.798C11.0651 56.6648 10.705 56.4544 10.373 56.1668C10.0057 55.8961 9.65718 55.5739 9.32747 55.2002L7.59297 56.1256L5.82576 53.7821C6.11006 53.5611 6.43318 53.3533 6.79512 53.1589C7.15693 52.9646 7.53181 52.7746 7.91963 52.5891C7.71663 52.0272 7.56538 51.483 7.46589 50.9566C7.34041 50.4214 7.31282 49.9775 7.38289 49.6251L7.45308 49.432C7.446 49.3717 7.45186 49.3158 7.47053 49.2643C7.63923 48.8009 7.95137 48.3433 8.40706 47.8915C8.86275 47.4397 9.40901 47.0189 10.0459 46.6292C10.6409 46.2604 11.3076 45.9302 12.0455 45.6387C12.0017 44.8041 11.9667 44.2402 11.9451 44.0792L11.5979 41.3634C11.5604 41.0191 11.5241 40.6778 11.4891 40.3394C11.4469 39.932 11.4062 39.529 11.3671 39.1301C10.9782 39.6531 10.3983 40.5318 9.81257 41.4193ZM12.2031 48.8956C11.9525 48.9573 11.7214 49.0207 11.5098 49.0859C10.8868 49.2776 10.5424 49.4636 10.4769 49.6437C10.409 49.9101 10.4095 50.2287 10.4782 50.5998C10.5469 50.9708 10.6545 51.3552 10.8009 51.7529C11.3265 51.6758 11.8352 51.6267 12.3269 51.6057C12.2844 50.6671 12.2426 49.7496 12.2031 48.8956ZM12.4119 53.4871C12.2176 53.4518 11.9696 53.4795 11.6677 53.5704C11.4526 53.6351 11.2846 53.685 11.1636 53.7199C11.0823 53.7434 11.0223 53.7601 10.9836 53.7701C11.0942 53.866 11.2473 54.0054 11.4428 54.1882C11.6124 54.3622 11.8007 54.4847 12.0078 54.5557C12.1765 54.6136 12.326 54.5835 12.4565 54.4657C12.4417 54.1415 12.4268 53.8147 12.4119 53.4871ZM15.5797 48.3212C16.044 48.2649 16.5319 48.2114 17.0438 48.1605C17.1201 48.1521 17.2241 48.1284 17.3518 48.0993C18.1839 47.9098 20.0218 47.4911 21.7471 49.5999L21.7828 49.6565C22.0927 49.8414 22.3497 50.2117 22.5981 50.5334L22.5988 50.5341C22.7214 50.6933 22.835 50.8404 22.9378 50.9472C23.2756 51.2518 23.5446 51.5325 23.7448 51.7894C23.9671 52.0594 24.1623 52.3476 24.3303 52.6539C24.5949 53.2584 24.6558 53.9989 24.513 54.8755C24.3906 55.6269 24.1068 56.4023 23.6618 57.2016C23.2219 57.9697 22.5859 60.6036 21.7539 61.1034C21.3243 61.3623 20.6665 61.5366 19.7802 61.6262C18.894 61.7157 17.8975 61.7395 16.7906 61.6974C16.6442 61.6918 16.497 61.6855 16.3492 61.6785L16.3509 61.6565H16.1801C16.0681 59.9271 15.9179 54.9608 15.7725 52.0865L15.7718 52.0751L15.7714 52.0669C15.7052 50.7566 15.64 49.4661 15.5797 48.3212Z" fill="#373247"/>
</svg>
